<?xml version="1.0" encoding="utf-8"?>
<!-- Generator: Adobe Illustrator 23.0.1, SVG Export Plug-In . SVG Version: 6.00 Build 0)  -->
<svg version="1.1" id="Capa_1" xmlns="http://www.w3.org/2000/svg" xmlns:xlink="http://www.w3.org/1999/xlink" x="0px" y="0px"
	 viewBox="0 0 112.2 112.2" style="enable-background:new 0 0 112.2 112.2;" xml:space="preserve">
<style type="text/css">
	.st0{fill:#121212;}
</style>
<path class="st0" d="M56.1,0C25.1,0,0,25.1,0,56.1c0,22.7,13.5,42.3,33,51.1c1.5,0.8,3,1.4,4.5,1.8c0.4,0.1,0.8,0.3,1.2,0.4
	c0,0,0.1-0.1,0.1-0.1c0,0,0,0,0.1-0.1c1.2,0.2,2.2,0,2.7-0.5c0.6-0.6,0.9-1.3,0.9-2.1c0-0.1,0-1.4,0-3.8c0-2.4,0-4.5,0-6.3l-1.6,0.3
	c-1,0.2-2.4,0.3-4,0.3c-1.6,0-3.2-0.2-4.9-0.5c-1.7-0.3-3.3-1-4.8-2.1c-1.5-1.1-2.5-2.6-3.1-4.4l-0.7-1.6c-0.5-1.1-1.2-2.3-2.2-3.6
	c-1-1.3-2.1-2.2-3.1-2.7l-0.5-0.3c-0.3-0.2-0.6-0.5-0.9-0.9c-0.3-0.3-0.5-0.7-0.6-1c-0.1-0.3,0-0.6,0.3-0.8c0.4-0.2,1.1-0.3,2.1-0.3
	l1.4,0.2c0.9,0.2,2.1,0.8,3.5,1.7c1.4,1,2.5,2.2,3.4,3.7c1.1,1.9,2.4,3.4,4,4.4c1.5,1,3.1,1.5,4.7,1.5c1.6,0,2.9-0.1,4.1-0.4
	c1.1-0.2,2.2-0.6,3.2-1.1c0.4-3.2,1.6-5.6,3.5-7.3c-2.7-0.3-5.1-0.7-7.3-1.3c-2.1-0.6-4.4-1.5-6.7-2.8c-2.3-1.3-4.2-2.9-5.7-4.8
	c-1.5-1.9-2.8-4.4-3.7-7.5c-1-3.1-1.5-6.6-1.5-10.7c0-5.7,1.9-10.6,5.6-14.6c-1.8-4.3-1.6-9.2,0.5-14.5c1.4-0.4,3.4-0.1,6.1,1
	c2.7,1.1,4.7,2,5.9,2.7c1.3,0.8,2.3,1.4,3,1.9c4.4-1.2,9-1.8,13.6-1.8c4.7,0,9.2,0.6,13.7,1.8l2.7-1.7c1.8-1.1,4-2.2,6.5-3.1
	s4.4-1.2,5.8-0.8c2.1,5.3,2.3,10.2,0.6,14.5c3.7,4,5.6,8.9,5.6,14.6c0,4-0.5,7.6-1.5,10.7c-1,3.1-2.2,5.6-3.8,7.5
	c-1.5,1.9-3.5,3.5-5.8,4.7c-2.3,1.3-4.5,2.2-6.7,2.8c-2.2,0.6-4.6,1-7.3,1.3c2.5,2.1,3.7,5.5,3.7,10.1v15c0,0.8,0.3,1.6,0.9,2.1
	c0.5,0.4,1.1,0.6,1.7,0.6c0.2,0,0.4,0,0.6,0c0.2,0,0.4,0,0.7-0.1c0.7-0.1,1.3-0.3,2-0.5c0.3-0.1,0.7-0.2,1-0.3
	c0.4-0.1,0.7-0.3,1.1-0.5c0.2-0.1,0.3-0.2,0.5-0.3c0.2-0.1,0.4-0.2,0.5-0.3c2.5-1.1,4.8-2.3,7.1-3.7c0,0,0.1,0,0.2-0.1
	c0.9-0.4,1.9-1.1,2.7-1.9c1.2-0.8,2.3-1.7,3.4-2.6c0.3-0.2,0.5-0.4,0.7-0.6c0.2-0.2,0.5-0.4,0.7-0.6c11.5-10.3,18.8-25.2,18.8-41.9
	C112.2,25.1,87.1,0,56.1,0z"/>
</svg>
