<?xml version="1.0" encoding="utf-8"?>
<!-- Generator: Adobe Illustrator 23.0.1, SVG Export Plug-In . SVG Version: 6.00 Build 0)  -->
<svg version="1.1" id="Layer_1" xmlns="http://www.w3.org/2000/svg" xmlns:xlink="http://www.w3.org/1999/xlink" x="0px" y="0px"
	 viewBox="0 0 1055.6 492" style="enable-background:new 0 0 1055.6 492;" xml:space="preserve">
<style type="text/css">
	.st0{fill:#121212;}
</style>
<g>
	<g>
		<path class="st0" d="M29.9,284.6l-0.8-0.2h888.2L813.9,388.1c-5.1,5.1-7.8,11.9-7.8,19.1s2.8,14,7.8,19.1l16.1,16.1
			c5.1,5.1,11.8,7.9,19,7.9c7.2,0,14-2.8,19-7.8l177.4-177.4c5.1-5.1,7.9-11.9,7.8-19.1c0-7.2-2.8-14-7.8-19.1L868,49.5
			c-5.1-5.1-11.8-7.8-19-7.8c-7.2,0-13.9,2.8-19,7.8l-16.1,16.1c-5.1,5.1-7.8,11.8-7.8,19c0,7.2,2.8,13.6,7.8,18.7l104.7,104.3h-889
			c-14.8,0-27.3,12.8-27.3,27.6V258C2.3,272.8,15.1,284.6,29.9,284.6z"/>
	</g>
</g>
</svg>
